<svg width="64" height="64" viewBox="0 0 64 64" fill="none" xmlns="http://www.w3.org/2000/svg">
  <defs>
    <linearGradient id="pulso-favicon-gradient" x1="10" y1="8" x2="56" y2="58" gradientUnits="userSpaceOnUse">
      <stop stop-color="#00F0FF" />
      <stop offset="0.55" stop-color="#FF43F8" />
      <stop offset="1" stop-color="#FFE600" />
    </linearGradient>
    <filter id="pulso-favicon-glow" x="-12" y="-12" width="88" height="88" color-interpolation-filters="sRGB">
      <feDropShadow dx="0" dy="0" stdDeviation="4" flood-color="#00F0FF" flood-opacity="0.55" />
    </filter>
  </defs>
  <rect x="6" y="6" width="52" height="52" rx="14" fill="url(#pulso-favicon-gradient)" filter="url(#pulso-favicon-glow)" />
  <path
    d="M22 37.4C22 33.1 24.3 29.6 28.3 26.1C30.9 23.8 32.4 21.1 32.8 17C35.4 22 38.1 25 41 27.9C43.7 30.6 45 33.8 45 37.8C45 45.3 39.3 51 32 51C24.7 51 19 45.4 19 38.1C19 35.2 20 32.7 21.7 30.8C21.5 33 21.6 35.3 22 37.4Z"
    fill="none"
    stroke="#0B1129"
    stroke-linecap="round"
    stroke-linejoin="round"
    stroke-width="5"
  />
</svg>
